<?xml version="1.0" encoding="utf-8"?>
<!-- Generator: Adobe Illustrator 24.1.0, SVG Export Plug-In . SVG Version: 6.00 Build 0)  -->
<svg version="1.1" id="Layer_1" xmlns="http://www.w3.org/2000/svg" xmlns:xlink="http://www.w3.org/1999/xlink" x="0px" y="0px"
	 viewBox="0 0 142 61.2" style="enable-background:new 0 0 142 61.2;" xml:space="preserve">
<style type="text/css">
	.st0{fill:#FFFFFF;}
</style>
<g>
	<path class="st0" d="M6.8,46V3.9h7.8V39h16.1v7H6.8z"/>
	<path class="st0" d="M48.6,46.7c-9.3,0-15.9-6.7-15.9-15.7s6.7-15.7,15.9-15.7c9.4,0,16,6.7,16,15.7S58,46.7,48.6,46.7z M48.6,22.1
		c-4.7,0-8.2,3.8-8.2,8.8s3.5,8.8,8.2,8.8c4.8,0,8.2-3.8,8.2-8.8S53.4,22.1,48.6,22.1z"/>
	<path class="st0" d="M99.2,45.6c0,9-7.5,13-16,13c-4.8,0-8.9-1.3-11.8-3.1l3.6-5.8c1.7,1.1,4.1,2,6.9,2c5,0,9.6-2.6,9.6-7.3v-2.8
		h-0.1c-2.3,2-5.1,3.4-8.5,3.4c-7.7,0-14.1-6.3-14.1-14.7c0-8.5,6.4-15.1,14.1-15.1c3.5,0,7.2,1.7,8.8,4.4h0.1l0.1-3.7h7.2V45.6z
		 M84.7,22.1c-4.6,0-8.3,3.5-8.3,8.2s3.7,8.2,8.3,8.2c2.8,0,5.2-1.5,6.8-3.7v-9.2C89.9,23.5,87.5,22.1,84.7,22.1z"/>
	<path class="st0" d="M121,46.7c-9.3,0-15.9-6.7-15.9-15.7s6.7-15.7,15.9-15.7c9.4,0,16,6.7,16,15.7S130.4,46.7,121,46.7z M121,22.1
		c-4.7,0-8.2,3.8-8.2,8.8s3.5,8.8,8.2,8.8c4.8,0,8.2-3.8,8.2-8.8S125.8,22.1,121,22.1z"/>
</g>
</svg>
