<svg id="Layer_1" data-name="Layer 1" xmlns="http://www.w3.org/2000/svg" width="1.91cm" height="1.98cm" viewBox="0 0 54.24 56"><defs><style>.cls-1{fill:#fff;}.cls-2{fill:#f1f172;}</style></defs><path d="M30.56,43.13C33.17,48.28,38,51,42.15,54.77c.18-.57.41-.88.35-1.12-1.07-4.09-2.17-8.17-3.24-12.19,7.87,2.83,9.05,3,12.2,1.42-1.89-2-3.76-4.06-5.69-6.06s-4-4.08-6.1-6.16a3.69,3.69,0,0,1,1.15-.12,11.45,11.45,0,0,0,9.08-2.31,20.5,20.5,0,0,1,3.67-1.58A12.52,12.52,0,0,0,55,25.78c-.41-.44-.75-1.13-1.25-1.27a37.53,37.53,0,0,0-6.33-1.41c-2.46-.24-5-.06-7.79-.06,1.54-5.54,1.44-10.51-1.8-15.39-2.37,9-2.58,9.5-5.22,11.65-.8-8.48-2.4-13.73-4.89-15.62-.13,2.06-.12,4-.42,6s-.89,3.68-1.49,6.1a10.27,10.27,0,0,1-1.88-7.45,46.38,46.38,0,0,0,.4-5c0-1.4-.46-2.64-2-3-.88,1.9-1.66,3.71-2.54,5.47A7.06,7.06,0,0,0,19,10.65a11.13,11.13,0,0,1-.67,5.84C13.8,14,9.58,11.66,6.37,7.72c.9,7.33,6.09,12.11,10.16,17.48a25.81,25.81,0,0,0-4,2.06,30.82,30.82,0,0,1-8.91,5.05A4.1,4.1,0,0,0,.77,35.64a64.71,64.71,0,0,0,6.5-.33,12.14,12.14,0,0,1,6.18.25c-1.25,3.14-2.52,6.06-4.93,8.36C7.15,45.22,6,46.75,6.24,48.84a6.68,6.68,0,0,0,.87,1.81,10.33,10.33,0,0,0,1.42-1c1.05-1,1.88-2.33,3.09-3,3-1.71,6.19-3.14,9.47-4.77.09,4.86-2.69,9.18-1.54,14.49l6-6.73,4.29-6.15.75-.34C33.17,48.28,38,51,42.15,54.77c.18-.57.41-.88.35-1.12-1.07-4.09-2.17-8.17-3.24-12.19,7.87,2.83,9.05,3,12.2,1.42-1.89-2-3.76-4.06-5.69-6.06s-4-4.08-6.1-6.16a3.69,3.69,0,0,1,1.15-.12,11.45,11.45,0,0,0,9.08-2.31,20.5,20.5,0,0,1,3.67-1.58A12.52,12.52,0,0,0,55,25.78c-.41-.44-.75-1.13-1.25-1.27a37.53,37.53,0,0,0-6.33-1.41c-2.46-.24-5-.06-7.79-.06,1.54-5.54,1.44-10.51-1.8-15.39-2.37,9-2.58,9.5-5.22,11.65-.8-8.48-2.4-13.73-4.89-15.62-.13,2.06-.12,4-.42,6s-.89,3.68-1.49,6.1a10.27,10.27,0,0,1-1.88-7.45,46.38,46.38,0,0,0,.4-5c0-1.4-.46-2.64-2-3-.88,1.9-1.66,3.71-2.54,5.47A7.06,7.06,0,0,0,19,10.65a11.13,11.13,0,0,1-.67,5.84C13.8,14,9.58,11.66,6.37,7.72c.9,7.33,6.09,12.11,10.16,17.48a25.81,25.81,0,0,0-4,2.06,30.82,30.82,0,0,1-8.91,5.05A4.1,4.1,0,0,0,.77,35.64a64.71,64.71,0,0,0,6.5-.33,12.14,12.14,0,0,1,6.18.25c-1.25,3.14-2.52,6.06-4.93,8.36C7.15,45.22,6,46.75,6.24,48.84a6.68,6.68,0,0,0,.87,1.81,10.33,10.33,0,0,0,1.42-1c1.05-1,1.88-2.33,3.09-3,3-1.71,6.19-3.14,9.47-4.77.09,4.86-2.69,9.18-1.54,14.49l6-6.73m-18-2.07C10.6,46,13.27,44.66,16,43.35c3.62-1.75,6.87-3.86,8.61-7.76.52-1.16,0-1.68-.69-2.4a1.52,1.52,0,0,0-2.15-.29c-1.84.94-3.81,1.61-5.67,2.52a4.34,4.34,0,0,0-2,1.71,34.17,34.17,0,0,1-5.57,8.61A9.07,9.07,0,0,0,7.53,47.55ZM3.18,34.27c4,0,7.45-.1,10.87,0a13,13,0,0,0,6.78-1.94c1.47-.81,1.52-1.92,1.53-3.36,0-1.73-1.31-1.71-2.29-2a7.5,7.5,0,0,0-6.59.73C10.26,29.72,7.06,31.79,3.18,34.27ZM49,42.63c-2.25-2.82-4-5.27-6-7.49A11.54,11.54,0,0,0,34.82,31a2.21,2.21,0,0,0-1.74.75,2,2,0,0,0,.2,1.84A54.27,54.27,0,0,0,39.62,40,12.14,12.14,0,0,0,49,42.63ZM20.53,52.22l.77.5c2.16-2.62,4.49-5.13,6.43-7.9a11.91,11.91,0,0,0,1.78-8.08c-.05-.6-.52-1.58-.94-1.66-.84-.17-2.2-.17-2.6.34C24.59,37.2,23,39.1,22.45,41.2A101.5,101.5,0,0,0,20.53,52.22Zm19.23-.82c0-7.58-3.15-12.59-7.38-16.95A1.57,1.57,0,0,0,31.15,34a1.52,1.52,0,0,0-.85,1.12c.29,3.92.32,8,3.51,10.93C35.77,47.84,37.78,49.61,39.76,51.4Zm12.3-26.24c-6.24-1.83-12.06-2-17.53,1.47a2.54,2.54,0,0,0-.66,2.08,1.84,1.84,0,0,0,1.37,1.17c3,0,5.92-.13,8.88-.3C47.38,29.4,49.43,27.05,52.06,25.16Zm-42-12.09-.47.47a12.8,12.8,0,0,0,1.1,2.5c1.71,2.34,3.56,4.58,5.28,6.9a9.56,9.56,0,0,0,5.39,3.34,1.94,1.94,0,0,0,2.35-.8c.79-.92.08-1.51-.34-2.18C20.16,18.26,15,15.81,10.08,13.07ZM28.17,24.41a4.84,4.84,0,0,0-4.47,5c0,2.66,1.41,4.15,3.92,4.1a5.2,5.2,0,0,0,4.91-5.35C32.5,25.84,30.79,24.37,28.17,24.41Zm-2.89-.81c0-2,0-3.61,0-5.25a4.14,4.14,0,0,0-.48-2A12.66,12.66,0,0,1,22.9,7.66c.13-1.28,0-2.58,0-4.19C20.69,6,19.56,8.34,20,11.42c.22,1.4-.23,2.89-.22,4.34A3.82,3.82,0,0,0,20.38,18C21.85,19.86,23.49,21.59,25.28,23.6ZM29,8.54c-.55,1.75-1.13,3.21-1.45,4.72a56.84,56.84,0,0,0-1.25,7.64c-.15,2.06.54,2.36,3,2.52,1.83.12,1.71-1.26,1.8-2.27C31.52,16.86,31.29,12.65,29,8.54Zm9.59,4.21c-2,2.9-4,5.78-6,8.69a4.82,4.82,0,0,0-.74,1.69c-.35,1.86.7,2.69,2.54,2.17,2.92-.82,4.62-2.59,4.84-5.72C39.47,17.17,39.71,14.78,38.63,12.75Z" transform="translate(-0.77 -0.35)"/><path class="cls-1" d="M7.53,47.55a9.07,9.07,0,0,1,.93-1.81A34.17,34.17,0,0,0,14,37.13a4.34,4.34,0,0,1,2-1.71c1.86-.91,3.83-1.58,5.67-2.52a1.52,1.52,0,0,1,2.15.29c.67.72,1.21,1.24.69,2.4-1.74,3.9-5,6-8.61,7.76C13.27,44.66,10.6,46,7.53,47.55Z" transform="translate(-0.77 -0.35)"/><path class="cls-1" d="M3.18,34.27c3.88-2.48,7.08-4.55,10.3-6.57A7.5,7.5,0,0,1,20.07,27c1,.32,2.29.3,2.29,2,0,1.44-.06,2.55-1.53,3.36a13,13,0,0,1-6.78,1.94C10.63,34.17,7.2,34.27,3.18,34.27Z" transform="translate(-0.77 -0.35)"/><path class="cls-1" d="M49,42.63A12.14,12.14,0,0,1,39.62,40a54.27,54.27,0,0,1-6.34-6.43,2,2,0,0,1-.2-1.84A2.21,2.21,0,0,1,34.82,31,11.54,11.54,0,0,1,43,35.14C45,37.36,46.71,39.81,49,42.63Z" transform="translate(-0.77 -0.35)"/><path class="cls-1" d="M20.53,52.22a101.5,101.5,0,0,1,1.92-11c.59-2.1,2.14-4,3.52-5.78.4-.51,1.76-.51,2.6-.34.42.08.89,1.06.94,1.66a11.91,11.91,0,0,1-1.78,8.08c-1.94,2.77-4.27,5.28-6.43,7.9Z" transform="translate(-0.77 -0.35)"/><path class="cls-1" d="M39.76,51.4c-2-1.79-4-3.56-5.95-5.38-3.19-3-3.22-7-3.51-10.93A1.52,1.52,0,0,1,31.15,34a1.57,1.57,0,0,1,1.23.48C36.61,38.81,39.77,43.82,39.76,51.4Z" transform="translate(-0.77 -0.35)"/><path class="cls-1" d="M52.06,25.16c-2.63,1.89-4.68,4.24-7.94,4.42-3,.17-5.92.3-8.88.3a1.84,1.84,0,0,1-1.37-1.17,2.54,2.54,0,0,1,.66-2.08C40,23.14,45.82,23.33,52.06,25.16Z" transform="translate(-0.77 -0.35)"/><path class="cls-1" d="M10.08,13.07C15,15.81,20.16,18.26,23.39,23.3c.42.67,1.13,1.26.34,2.18a1.94,1.94,0,0,1-2.35.8A9.56,9.56,0,0,1,16,22.94c-1.72-2.32-3.57-4.56-5.28-6.9a12.8,12.8,0,0,1-1.1-2.5Z" transform="translate(-0.77 -0.35)"/><path class="cls-2" d="M28.17,24.41c2.62,0,4.33,1.43,4.36,3.77a5.2,5.2,0,0,1-4.91,5.35c-2.51,0-3.94-1.44-3.92-4.1A4.84,4.84,0,0,1,28.17,24.41Z" transform="translate(-0.77 -0.35)"/><path class="cls-1" d="M25.28,23.6c-1.79-2-3.43-3.74-4.9-5.6a3.82,3.82,0,0,1-.56-2.24c0-1.45.44-2.94.22-4.34-.48-3.08.65-5.46,2.88-7.95,0,1.61.11,2.91,0,4.19a12.66,12.66,0,0,0,1.88,8.66,4.14,4.14,0,0,1,.48,2C25.32,20,25.28,21.64,25.28,23.6Z" transform="translate(-0.77 -0.35)"/><path class="cls-1" d="M29,8.54c2.25,4.11,2.48,8.32,2.08,12.61-.09,1,0,2.39-1.8,2.27-2.44-.16-3.13-.46-3-2.52a56.84,56.84,0,0,1,1.25-7.64C27.91,11.75,28.49,10.29,29,8.54Z" transform="translate(-0.77 -0.35)"/><path class="cls-1" d="M38.63,12.75c1.08,2,.84,4.42.67,6.83-.22,3.13-1.92,4.9-4.84,5.72-1.84.52-2.89-.31-2.54-2.17a4.82,4.82,0,0,1,.74-1.69C34.63,18.53,36.63,15.65,38.63,12.75Z" transform="translate(-0.77 -0.35)"/></svg>